<svg width="103" height="106" viewBox="0 0 103 106" fill="none" xmlns="http://www.w3.org/2000/svg">
<path d="M87.0263 11.5L85.2583 18.5622L83.5263 17.5622L80.0981 7.5L87.0263 11.5Z" fill="#332E4C"/>
<path d="M80.0981 7.5L75.5 9.4641L76.5981 13.5622L87.0263 11.5L80.0981 7.5Z" fill="#403366"/>
<path d="M84 2L86 9H84L76 2H84Z" fill="#332E4C"/>
<path d="M76 2L73 6L76 9L84 2H76Z" fill="#403366"/>
<rect x="71.949" y="6" width="7" height="7.79527" rx="2" transform="rotate(22.2284 71.949 6)" fill="#403366"/>
<rect x="66" y="5.11426" width="7" height="7.79527" rx="2" transform="rotate(-17.5791 66 5.11426)" fill="#6C5C99"/>
<path d="M63.9999 99V95V94H60.9999V99C57.7999 101 56.9999 103.5 56.9999 105C57.4999 106 58.5527 105.224 58.9999 105C59.9999 104.5 60.2499 104.5 60.9999 105C62.4999 106 64.4999 106 65.9999 105C66.9302 104.38 66.9999 104 68.9999 105C69.4999 105 70.4609 104.922 69.9999 104C67.9999 100 65.8333 99.3333 63.9999 99Z" fill="#D47559"/>
<path d="M37.1218 99V95V94H40.1218V99C43.3218 101 44.1218 103.5 44.1218 105C43.6218 106 42.569 105.224 42.1218 105C41.1218 104.5 40.8718 104.5 40.1218 105C38.6218 106 36.6218 106 35.1218 105C34.1915 104.38 34.1218 104 32.1218 105C31.6218 105 30.6608 104.922 31.1218 104C33.1218 100 35.2884 99.3333 37.1218 99Z" fill="#D47559"/>
<path d="M21.3793 25.7278C23.3744 10.9921 35.9551 0 50.8253 0C65.4811 0 77.9482 10.6857 80.1903 25.1691L86.0026 62.7167C88.6294 79.6859 75.5035 95 58.3321 95H44.0466C27.0897 95 14.0246 80.0468 16.2998 63.2432L21.3793 25.7278Z" fill="#F4F2FF"/>
<mask id="mask0" mask-type="alpha" maskUnits="userSpaceOnUse" x="16" y="0" width="71" height="95">
<path d="M21.3793 25.7278C23.3744 10.9921 35.9551 0 50.8253 0C65.4811 0 77.9482 10.6857 80.1903 25.1691L86.0026 62.7167C88.6294 79.6859 75.5035 95 58.3321 95H44.0466C27.0897 95 14.0246 80.0468 16.2998 63.2432L21.3793 25.7278Z" fill="#C4C4C4"/>
</mask>
<g mask="url(#mask0)">
<path d="M72 13C68 6.6 56.3333 5 51 5V0H80L98.5 60.5L88 81C92 61.4 82 46.8333 76.5 42C74.6667 41 71.7 37.7 74.5 32.5C78 26 77 21 72 13Z" fill="#332E4C"/>
<path d="M30 13C34 6.6 45.6666 5 51 5V0H21.5L2.99997 60L13 81C8.99997 61.4 19.5 46.8333 25 42C26.8333 41 29.8 37.2 27 32C23.5 25.5 25 21 30 13Z" fill="#332E4C"/>
</g>
<circle cx="64.5" cy="21.5" r="7.5" fill="#332E4C"/>
<path d="M65.403 16.9151C65.1804 17.4206 66.7666 18.6082 67.4405 18.905C68.1145 19.2017 68.8412 19.0325 69.0638 18.5271C69.2864 18.0216 68.9204 17.3713 68.2465 17.0745C67.5726 16.7778 65.6255 16.4097 65.403 16.9151Z" fill="#F4F2FF"/>
<circle cx="36.5" cy="21.5" r="7.5" fill="#332E4C"/>
<path d="M37.403 16.9151C37.1804 17.4206 38.7666 18.6082 39.4405 18.905C40.1145 19.2017 40.8412 19.0325 41.0638 18.5271C41.2864 18.0216 40.9204 17.3713 40.2465 17.0745C39.5726 16.7778 37.6255 16.4097 37.403 16.9151Z" fill="#F4F2FF"/>
<path d="M51 33L57 34.3846L52.3666 38.721C51.5976 39.4406 50.4023 39.4406 49.6333 38.721L45 34.3846L51 33Z" fill="#D47559"/>
<path d="M50.9999 36L44.7302 34.7934C44.0162 34.656 43.6829 33.8266 44.1033 33.2333L48.5521 26.9546C49.7478 25.2672 52.2521 25.2672 53.4477 26.9546L57.8966 33.2333C58.317 33.8266 57.9837 34.656 57.2696 34.7934L50.9999 36Z" fill="#D47559"/>
<mask id="mask1" mask-type="alpha" maskUnits="userSpaceOnUse" x="24" y="0" width="54" height="15">
<path d="M74 9C67 2.99999 59 6.73905e-06 51 0V10C59.8334 10 70.6147 12.525 76.4197 14.2048C77.3115 14.4629 78.0713 13.4865 77.5227 12.7376C76.658 11.557 75.59 10.3628 74 9Z" fill="#6C5C99"/>
<path d="M28 9C35 2.99999 43 6.73905e-06 51 0V10C42.1666 10 31.3853 12.525 25.5803 14.2048C24.6885 14.4629 23.9205 13.4814 24.4664 12.7305C25.2954 11.59 26.337 10.4255 28 9Z" fill="#6C5C99"/>
</mask>
<g mask="url(#mask1)">
<path d="M74 9C67 2.99999 59 6.73905e-06 51 0V10C59.8334 10 70.6147 12.525 76.4197 14.2048C77.3115 14.4629 78.0713 13.4865 77.5227 12.7376C76.658 11.557 75.59 10.3628 74 9Z" fill="#6C5C99"/>
<path d="M28 9C35 2.99999 43 6.73905e-06 51 0V10C42.1666 10 31.3853 12.525 25.5803 14.2048C24.6885 14.4629 23.9205 13.4814 24.4664 12.7305C25.2954 11.59 26.337 10.4255 28 9Z" fill="#6C5C99"/>
<path d="M65 10.0001C71.8 11.2001 76.5 13.1668 78 14.0001L80.5 13.0001C81 12.3335 80.5 10.2001 74.5 7.00011C68.5 3.80011 60.3333 4.33344 57 5.00011C64.6 5.80011 68.8333 8.66678 70 10.0001C68 9.60011 65.8333 9.83345 65 10.0001Z" fill="#403366"/>
<path d="M37 10.0001C30.2 11.2001 25.5 13.1668 24 14.0001L21 13.0001C20.5 12.3334 21.1466 10.2001 27.1466 7.00009C33.1466 3.80009 41.6666 4.33345 45 5.00012C37.4 5.80012 33.1666 8.66676 32 10.0001C34 9.6001 36.1666 9.83343 37 10.0001Z" fill="#403366"/>
</g>
<path d="M1.03503 51C4.11741 44.0647 17.035 32.8333 22.035 31L18.035 50C5.03503 54 -2.96497 60 1.03503 51Z" fill="#332E4C"/>
<path d="M101 51C97.9176 44.0647 85 32.8333 80 31L84 50C97 54 105 60 101 51Z" fill="#332E4C"/>
</svg>
